<svg width="53" height="39" viewBox="0 0 53 39" fill="none" xmlns="http://www.w3.org/2000/svg">
<path d="M53 13.7772C53 16.1766 50.8624 18.2282 48.3625 18.2282H38.0264C39.7178 19.9597 39.9255 23.2826 37.3743 25.4335C38.8533 27.7521 37.5966 30.818 35.6715 31.7624C36.6004 36.7532 33.3997 39 28.1562 39C27.872 39 26.782 38.9794 26.5 38.9802C20.085 38.9973 18.5403 35.8252 13.6919 35.0888C12.4836 34.9053 11.5938 33.8811 11.5938 32.6814V15.2609C11.5949 13.3956 12.6919 11.6158 14.5404 10.8078C17.5306 9.48807 24.4172 5.82735 25.6719 2.95466C26.479 1.10683 27.8855 0.000812925 29.8125 4.25063e-07C33.355 -0.00142145 35.7907 3.56464 34.3795 6.79534C34.0086 7.64431 33.5191 8.48839 32.9144 9.32608H48.3625C50.7899 9.32608 53 11.4125 53 13.7772ZM9.9375 13.8125V33.3125C9.9375 34.6587 8.82522 35.75 7.45312 35.75H2.48438C1.11228 35.75 0 34.6587 0 33.3125V13.8125C0 12.4663 1.11228 11.375 2.48438 11.375H7.45312C8.82522 11.375 9.9375 12.4663 9.9375 13.8125ZM7.03906 30.875C7.03906 29.7531 6.11218 28.8438 4.96875 28.8438C3.82532 28.8438 2.89844 29.7531 2.89844 30.875C2.89844 31.9969 3.82532 32.9062 4.96875 32.9062C6.11218 32.9062 7.03906 31.9969 7.03906 30.875Z" fill="#56595A"/>
</svg>
