<svg width="493" height="418" viewBox="0 0 493 418" fill="none" xmlns="http://www.w3.org/2000/svg">
<path d="M454.452 347.159C454.348 347.159 455.983 340.028 456.134 339.588C457.919 334.521 464.366 325.766 470.384 325.929C471.384 325.982 472.362 326.246 473.254 326.703C474.145 327.16 474.93 327.801 475.557 328.582C476.185 329.363 476.64 330.268 476.893 331.238C477.146 332.207 477.192 333.219 477.028 334.208C476.483 338.417 472.598 341.93 469.108 343.924C465.004 346.266 454.464 347.159 454.452 347.159Z" fill="#263238"/>
<path d="M455.125 318.148C455.02 318.148 457.71 311.331 457.931 310.925C460.47 306.171 468.157 298.495 474.082 299.573C475.062 299.778 475.988 300.187 476.8 300.774C477.611 301.361 478.29 302.111 478.792 302.978C479.294 303.844 479.608 304.806 479.714 305.802C479.819 306.798 479.714 307.804 479.405 308.757C478.245 312.85 473.851 315.714 470.129 317.163C465.688 318.867 455.136 318.148 455.125 318.148Z" fill="#263238"/>
<path d="M462.685 285.903C462.569 285.903 465.259 279.085 465.479 278.679C468.018 273.937 475.717 266.261 481.642 267.328C482.623 267.534 483.549 267.944 484.36 268.532C485.171 269.12 485.849 269.872 486.35 270.74C486.851 271.607 487.164 272.571 487.268 273.567C487.372 274.563 487.264 275.571 486.953 276.523C485.793 280.604 481.399 283.48 477.677 284.929C473.248 286.622 462.685 285.903 462.685 285.903Z" fill="#263238"/>
<path d="M468.331 255.153C468.215 255.153 470.905 248.335 471.126 247.918C473.665 243.176 481.364 235.5 487.289 236.578C488.269 236.783 489.195 237.192 490.007 237.779C490.818 238.365 491.497 239.116 491.999 239.982C492.501 240.849 492.815 241.811 492.92 242.807C493.026 243.802 492.921 244.809 492.611 245.761C491.452 249.854 487.046 252.718 483.335 254.168C478.894 255.86 468.331 255.153 468.331 255.153Z" fill="#263238"/>
<path d="M465.931 228.427C465.815 228.427 466.615 221.168 466.72 220.716C467.879 215.464 473.306 206.025 479.312 205.504C480.311 205.444 481.311 205.595 482.248 205.947C483.184 206.3 484.036 206.845 484.748 207.548C485.46 208.252 486.016 209.097 486.38 210.029C486.744 210.961 486.907 211.96 486.86 212.959C486.86 217.215 483.382 221.145 480.112 223.522C476.309 226.282 465.931 228.427 465.931 228.427Z" fill="#263238"/>
<path d="M451.53 346.371C451.635 346.371 450.475 339.158 450.371 338.718C448.921 333.535 443.066 324.375 437.048 324.143C436.046 324.132 435.053 324.332 434.134 324.73C433.215 325.128 432.389 325.715 431.712 326.454C431.035 327.192 430.521 328.065 430.204 329.016C429.887 329.966 429.773 330.972 429.871 331.97C430.138 336.213 433.79 339.97 437.141 342.185C441.06 344.794 451.519 346.371 451.53 346.371Z" fill="#263238"/>
<path d="M454.707 314.113C454.823 314.113 452.574 307.157 452.388 306.716C450.162 301.811 442.985 293.648 437.002 294.333C436.01 294.474 435.06 294.823 434.212 295.356C433.365 295.889 432.639 296.595 432.082 297.427C431.525 298.26 431.15 299.2 430.981 300.187C430.812 301.174 430.852 302.186 431.1 303.156C432.004 307.307 436.19 310.473 439.831 312.154C444.121 314.137 454.696 314.113 454.707 314.113Z" fill="#263238"/>
<path d="M461.896 283.712C462.001 283.712 459.763 276.755 459.577 276.326C457.363 271.421 450.185 263.258 444.202 263.942C443.211 264.082 442.261 264.43 441.413 264.962C440.564 265.493 439.838 266.198 439.28 267.029C438.722 267.86 438.346 268.8 438.175 269.786C438.004 270.773 438.043 271.784 438.289 272.754C439.205 276.917 443.379 280.071 447.032 281.764C451.31 283.735 461.885 283.712 461.896 283.712Z" fill="#263238"/>
<path d="M467.149 255.42C467.265 255.42 465.015 248.463 464.83 248.022C462.603 243.129 455.438 234.966 449.443 235.651C448.452 235.79 447.502 236.138 446.654 236.67C445.807 237.202 445.081 237.907 444.524 238.738C443.967 239.57 443.592 240.509 443.422 241.496C443.253 242.482 443.294 243.493 443.541 244.463C444.446 248.625 448.632 251.779 452.284 253.46C456.563 255.443 467.149 255.42 467.149 255.42Z" fill="#263238"/>
<path d="M465.711 229.296C465.827 229.296 462.835 222.606 462.592 222.2C459.844 217.562 451.82 210.246 445.942 211.591C444.971 211.839 444.065 212.29 443.28 212.912C442.496 213.535 441.852 214.316 441.39 215.205C440.929 216.093 440.659 217.069 440.601 218.069C440.542 219.069 440.694 220.069 441.048 221.006C442.405 225.03 446.904 227.72 450.719 228.983C455.194 230.479 465.711 229.296 465.711 229.296Z" fill="#263238"/>
<path d="M459.38 206.176C459.473 206.176 459.902 198.906 459.879 198.442C459.566 193.062 455.82 182.859 449.988 181.34C449.013 181.115 448.001 181.097 447.018 181.289C446.036 181.481 445.105 181.877 444.286 182.452C443.466 183.027 442.777 183.769 442.264 184.628C441.75 185.487 441.423 186.445 441.304 187.439C440.654 191.648 443.414 196.1 446.208 199.034C449.49 202.373 459.368 206.165 459.38 206.176Z" fill="#263238"/>
<path d="M453.501 386.118C453.501 386.118 453.119 383.045 452.655 377.712C452.191 372.378 451.658 364.749 451.414 355.577C451.287 350.939 451.24 346.023 451.333 340.759C451.333 338.115 451.472 335.471 451.577 332.642C451.669 331.274 451.774 329.894 451.867 328.491C451.959 327.088 452.191 325.65 452.342 324.213C453.136 318.359 454.247 312.553 455.67 306.82C457.096 300.965 458.719 295.086 460.308 289.219C461.896 283.352 463.462 277.485 464.691 271.653C465.941 265.958 466.782 260.18 467.207 254.365C467.505 248.921 467.319 243.461 466.65 238.051C466.101 233.147 465.261 228.28 464.134 223.476C463.114 219.035 461.919 215.023 460.829 211.487C459.74 207.95 458.615 204.912 457.687 202.419C455.797 197.434 454.51 194.674 454.51 194.674C454.51 194.674 455.855 197.41 457.85 202.35C458.847 204.82 459.995 207.846 461.201 211.359C462.406 214.872 463.659 218.873 464.772 223.314C466.024 228.084 466.995 232.923 467.682 237.807C468.48 243.273 468.79 248.798 468.61 254.318C468.3 260.214 467.575 266.08 466.441 271.873C465.282 277.787 463.891 283.723 462.418 289.637C460.945 295.55 459.403 301.475 458.116 307.273C456.838 312.943 455.87 318.68 455.218 324.456C455.102 325.859 454.893 327.193 454.846 328.607C454.8 330.022 454.707 331.402 454.638 332.77C454.638 335.413 454.557 338.15 454.58 340.736C454.58 345.942 454.754 350.858 454.986 355.392C455.415 364.47 456.145 372.019 456.69 377.283C457.235 382.547 457.699 385.515 457.699 385.515C457.739 385.79 457.725 386.07 457.657 386.34C457.589 386.609 457.469 386.862 457.303 387.085C457.137 387.308 456.929 387.496 456.691 387.638C456.452 387.781 456.188 387.875 455.913 387.915C455.638 387.956 455.358 387.942 455.089 387.874C454.82 387.806 454.566 387.685 454.343 387.52C454.12 387.354 453.932 387.146 453.79 386.907C453.647 386.669 453.553 386.405 453.513 386.13V386.118H453.501Z" fill="#263238"/>
<path d="M440.608 374.141H469.514V380.123H466.998L461.78 412.775H448.353L443.124 380.123H440.608V374.141Z" fill="#263238" stroke="#263238" stroke-linecap="round" stroke-linejoin="round"/>
<path d="M250.138 395.974C250.138 395.974 249.141 401.852 249.871 403.174C250.602 404.496 251.773 406.235 251.773 406.235H260.979L261.478 403.394C262.747 404.804 264.305 405.923 266.046 406.676C268.493 407.545 270.858 406.676 273.722 406.896C276.145 407.082 281.838 406.896 281.838 406.896L281.676 403.823L265.06 396.379L259.112 391.741C259.112 391.741 253.895 396.449 250.138 395.974Z" fill="#263238" stroke="#263238" stroke-linecap="round" stroke-linejoin="round"/>
<path d="M181.565 395.974C181.565 395.974 183.142 400.762 182.562 402.073C181.983 403.383 181.032 406.235 181.032 406.235H171.837L171.025 403.394C169.906 404.81 168.462 405.936 166.816 406.676C164.497 407.545 161.993 406.676 159.164 406.896C156.764 407.082 151.047 406.896 151.047 406.896L150.885 403.823L166.689 396.379L172.962 392.901C172.962 392.901 177.855 396.449 181.565 395.974Z" fill="#263238" stroke="#263238" stroke-linecap="round" stroke-linejoin="round"/>
<path d="M255.1 169.919C255.1 169.919 258.904 219.151 260.225 242.689C261.547 266.226 262.162 276.905 262.312 293.474C262.463 310.044 263.194 342.788 263.194 355.09C263.206 367.649 262.389 380.195 260.747 392.646L249.628 398.571C249.628 398.571 246.033 366.986 244.584 355.67C243.274 345.431 238.485 303.771 236.317 290.889C234.148 278.007 224.269 233.216 224.269 233.216C224.269 233.216 211.086 280.21 207.677 298.982C204.268 317.754 191.444 360.087 188.696 370.384C185.948 380.68 181.565 395.951 181.565 395.951C180.02 396.404 178.397 396.53 176.8 396.322C176.083 396.265 175.391 396.034 174.785 395.648C174.178 395.262 173.676 394.733 173.321 394.107C173.321 394.107 176.556 363.288 177.89 348.307C179.548 329.755 180.069 305.127 182.087 294.819C184.105 284.512 184.035 264.765 186.377 251.512C187.711 243.987 194.494 171.994 194.494 171.994C194.494 171.994 232.108 187.218 255.1 169.919Z" fill="#263238" stroke="#263238" stroke-linecap="round" stroke-linejoin="round"/>
<path d="M260.747 392.646L252.086 399.673" stroke="white" stroke-width="0.5" stroke-linecap="round" stroke-linejoin="round"/>
<path d="M172.973 392.878L179.849 398.154" stroke="white" stroke-width="0.5" stroke-linecap="round" stroke-linejoin="round"/>
<path d="M229.951 186.488L229.255 215.197L234.125 210.339" stroke="white" stroke-width="0.5" stroke-linecap="round" stroke-linejoin="round"/>
<path d="M226.913 232.381L240.746 215.174" stroke="white" stroke-width="0.5" stroke-linecap="round" stroke-linejoin="round"/>
<path d="M244.584 216.426L233.047 227.743" stroke="white" stroke-width="0.5" stroke-linecap="round" stroke-linejoin="round"/>
<path d="M218.681 217.69C215.112 209.789 209.013 203.302 201.346 199.254" stroke="white" stroke-width="0.5" stroke-linecap="round" stroke-linejoin="round"/>
<path d="M236.27 178.719L235.609 182.082L230.229 183.334L230.844 179.148" stroke="white" stroke-width="0.5" stroke-linecap="round" stroke-linejoin="round"/>
<path d="M230.229 183.334C230.229 183.334 220.153 182.917 215.04 181.235L216.118 177.884" stroke="white" stroke-width="0.5" stroke-linecap="round" stroke-linejoin="round"/>
<path d="M211.457 177.05L210.437 181.235C210.437 181.235 202.448 180.818 201.161 179.566" stroke="white" stroke-width="0.5" stroke-linecap="round" stroke-linejoin="round"/>
<path d="M235.609 182.047C238.352 181.966 241.038 181.252 243.459 179.96L247.111 177.861L245.697 174.928" stroke="white" stroke-width="0.5" stroke-linecap="round" stroke-linejoin="round"/>
<path d="M260.063 73.5763C260.063 73.5763 267.345 79.8955 269.524 84.0697C271.704 88.2439 300.321 146.59 300.205 150.578C300.089 154.567 295.857 162.173 288.389 162.173C280.922 162.173 252.619 116.698 252.619 116.698L260.063 73.5763Z" fill="white"/>
<g style="mix-blend-mode:multiply" opacity="0.5">
<path d="M260.956 80.5796L261.443 80.8462C262.301 81.3448 264.226 82.4695 266.336 83.8725C268.72 85.7016 270.894 87.7899 272.817 90.099C272.817 90.099 270.197 83.142 266.359 79.8143C264.225 77.9805 262.24 75.9799 260.422 73.8313L260.956 80.5796Z" fill="#263238"/>
</g>
<path d="M260.063 73.5763C260.063 73.5763 267.345 79.8955 269.524 84.0697C271.704 88.2439 300.321 146.59 300.205 150.578C300.089 154.567 295.857 162.173 288.389 162.173C280.922 162.173 252.619 116.698 252.619 116.698L260.063 73.5763Z" stroke="#263238" stroke-linecap="round" stroke-linejoin="round"/>
<path opacity="0.5" d="M278.302 134.589C277.339 133.429 270.185 121.916 269.455 117.614C268.724 113.312 270.614 107.805 270.614 104.929C270.614 102.053 266.069 109.95 265.826 108.999C265.582 108.048 262.718 97.7517 262.718 97.7517L253.941 109.103L252.631 116.721C252.631 116.721 263.715 134.519 273.849 147.842C281.061 145.523 291.949 141.986 294.291 140.572C297.92 138.427 279.264 135.795 278.302 134.589Z" fill="#263238"/>
<path d="M225.104 65.6917L260.109 73.5763C260.109 73.5763 262.544 91.5137 262.266 101.207C261.988 110.9 254.776 170.846 254.776 170.846C254.776 170.846 236.224 189.769 194.575 172.006C194.575 172.006 193.125 169.211 192.58 148.317C192.059 127.713 176.568 89.4498 177.808 85.0901C180.359 76.1504 210.993 67.5585 215.017 67.315C218.411 66.9924 221.78 66.4501 225.104 65.6917Z" fill="white" stroke="#263238" stroke-linecap="round" stroke-linejoin="round"/>
<g style="mix-blend-mode:multiply" opacity="0.5">
<path d="M228.27 170.742L196.21 158.173L201.752 97.2764L238.218 114.344L260.075 104.512L244.445 168.064L228.27 170.742Z" fill="#263238"/>
</g>
<g style="mix-blend-mode:multiply" opacity="0.5">
<path d="M237.754 76.2083C239.25 76.2083 253.083 78.9795 260.944 80.5796C260.492 76.475 260.098 73.6227 260.098 73.6227L225.093 65.7381C221.769 66.5004 218.399 67.0465 215.005 67.373C210.982 67.6165 180.348 76.2083 177.797 85.148C177.391 86.5974 178.806 91.7456 180.904 98.7373C183.965 90.8411 186.702 84.3364 187.641 83.4204C189.751 81.3101 210.831 75.8373 210.831 75.8373L237.754 76.2083Z" fill="#263238"/>
</g>
<path d="M234.612 83.5943L229.8 94.3544L240.352 168.91L232.618 179.345L225.278 170.835L227.33 95.3052L217.614 83.9653L223.829 72.2081L234.612 83.5943Z" fill="#263238"/>
<path d="M271.89 107.689L243.842 123.249L207.77 104.372L202.054 157.651L237.778 174.87L264.829 158.59L271.89 107.689Z" fill="#263238" stroke="#263238" stroke-linecap="round" stroke-linejoin="round"/>
<path d="M242.775 135.215L243.842 126.658" stroke="#263238" stroke-width="0.5" stroke-linecap="round" stroke-linejoin="round"/>
<path d="M237.778 174.87L242.184 139.911" stroke="#263238" stroke-width="0.5" stroke-linecap="round" stroke-linejoin="round"/>
<path d="M228.362 62.7002C228.362 62.7002 234.682 62.7002 237.43 66.8744C240.178 71.0486 245.453 87.5482 245.453 87.5482L226.438 82.2029L214.912 94.1109C214.912 94.1109 204.349 78.4577 208.651 68.5209C212.953 58.584 228.362 62.7002 228.362 62.7002Z" fill="white" stroke="#263238" stroke-linecap="round" stroke-linejoin="round"/>
<g style="mix-blend-mode:multiply" opacity="0.5">
<path d="M239.354 70.7355C238.81 69.4022 238.167 68.1116 237.43 66.8744C234.682 62.6422 228.362 62.7002 228.362 62.7002C228.362 62.7002 212.976 58.584 208.651 68.4977C207.26 71.7095 207.492 75.5242 208.292 79.2114C209.045 77.2403 210.75 73.2864 212.93 71.095C215.875 68.1498 216.223 70.7123 216.223 70.7123L232.711 69.4021C234.894 69.988 237.114 70.4333 239.354 70.7355Z" fill="#263238"/>
</g>
<path d="M231.076 53.0996C231.076 53.0996 232.142 75.0372 229.371 79.3622C226.6 83.6871 223.446 82.029 221.139 79.3622C218.831 76.6953 216.223 70.7355 216.223 70.7355L213.405 54.5026C213.405 54.5026 229.823 57.5289 231.076 53.0996Z" fill="white" stroke="#263238" stroke-linecap="round" stroke-linejoin="round"/>
<g style="mix-blend-mode:multiply" opacity="0.5">
<path d="M225.127 70.7355C227.515 70.0514 229.636 68.6511 231.203 66.7237C231.203 65.483 231.203 64.254 231.203 63.0597C228.502 59.9638 222.298 54.12 215.388 55.9984C214.796 56.1607 214.228 56.3462 213.706 56.5317L216.211 70.7355C216.211 70.7355 218.831 76.7417 221.127 79.3622L218.808 69.0079C219.617 69.8251 220.627 70.4151 221.736 70.7183C222.846 71.0216 224.015 71.0275 225.127 70.7355Z" fill="#263238"/>
</g>
<path d="M240.746 33.1447C240.746 33.1447 243.923 32.9128 243.992 38.2117C244.062 43.5106 240.943 47.963 238.798 46.1194C236.653 44.2758 240.154 30.7329 240.746 33.1447Z" fill="white" stroke="#263238" stroke-linecap="round" stroke-linejoin="round"/>
<path d="M218.936 5.71104C204.477 9.11995 200.604 18.4655 200.72 26.9298C200.72 30.1648 202.216 35.7651 204.199 41.667L203.943 41.1336C203.943 41.1336 199.595 33.5505 198.958 38.1073C198.32 42.6641 202.622 47.3833 204.048 48.9022C204.444 49.2668 204.954 49.4823 205.491 49.512C206.029 49.5416 206.559 49.3834 206.993 49.0645C209.868 56.0215 213.08 62.248 215.179 63.9409C219.724 67.6165 226.113 69.5064 231.192 65.1003C236.27 60.6943 241.291 35.568 241.291 35.568C242.497 10.1519 233.395 2.32531 218.936 5.71104Z" fill="white"/>
<g style="mix-blend-mode:multiply" opacity="0.5">
<path d="M211.237 32.4721C211.237 32.4721 216.28 28.2632 221.336 28.2632C226.391 28.2632 236.919 32.9012 238.172 36.6811C238.937 39.0001 238.033 46.4788 237.186 52.1604C239.621 44.1599 241.337 35.6028 241.337 35.6028C242.497 10.1983 233.383 2.34848 218.936 5.75739C204.488 9.16631 200.604 18.5118 200.72 26.9761C200.72 30.2111 202.216 35.8115 204.199 41.7133L203.943 41.18C203.943 41.18 199.595 33.5969 198.958 38.1537C198.32 42.7105 202.622 47.4296 204.048 48.9486C204.444 49.3131 204.954 49.5287 205.491 49.5583C206.029 49.5879 206.559 49.4297 206.993 49.1109C209.868 56.0679 213.08 62.2943 215.179 63.9872C215.179 63.9872 210.344 53.0996 208.663 48.4732C206.981 43.8468 207.445 35.7999 211.237 32.4721Z" fill="#263238"/>
</g>
<path d="M218.936 5.71104C204.477 9.11995 200.604 18.4655 200.72 26.9298C200.72 30.1648 202.216 35.7651 204.199 41.667L203.943 41.1336C203.943 41.1336 199.595 33.5505 198.958 38.1073C198.32 42.6641 202.622 47.3833 204.048 48.9022C204.444 49.2668 204.954 49.4823 205.491 49.512C206.029 49.5416 206.559 49.3834 206.993 49.0645C209.868 56.0215 213.08 62.248 215.179 63.9409C219.724 67.6165 226.113 69.5064 231.192 65.1003C236.27 60.6943 241.291 35.568 241.291 35.568C242.497 10.1519 233.395 2.32531 218.936 5.71104Z" stroke="#263238" stroke-linecap="round" stroke-linejoin="round"/>
<path d="M235.934 42.9656C235.21 44.0544 234.087 44.8152 232.808 45.0842C231.528 45.3531 230.194 45.1086 229.093 44.4033" stroke="#263238" stroke-linecap="round" stroke-linejoin="round"/>
<path d="M220.501 44.4962C219.777 45.585 218.654 46.3458 217.375 46.6148C216.095 46.8837 214.761 46.6392 213.66 45.9339" stroke="#263238" stroke-linecap="round" stroke-linejoin="round"/>
<path d="M221.243 40.9944C219.374 40.0566 217.351 39.4635 215.272 39.2436C212.512 39.1276 209.799 41.3771 209.799 41.3771" stroke="#263238" stroke-linecap="round" stroke-linejoin="round"/>
<path d="M227.899 52.7053C227.8 53.4099 227.43 54.0477 226.866 54.4815C226.302 54.9152 225.59 55.1102 224.884 55.0243C224.146 55.0467 223.417 54.8647 222.777 54.4984C222.136 54.1321 221.609 53.5958 221.255 52.9488" stroke="#263238" stroke-linecap="round" stroke-linejoin="round"/>
<path d="M230.334 58.3057C230.334 58.3057 223.562 60.3232 219.214 58.5724C219.782 59.5936 220.559 60.4838 221.494 61.185C222.429 61.8862 223.501 62.3827 224.64 62.6422C227.215 63.3263 230.334 58.3057 230.334 58.3057Z" fill="#263238"/>
<path d="M236.78 37.945C236.78 37.945 234.241 37.7247 231.841 37.7479C229.638 37.7479 227.446 40.6118 227.446 40.6118L226.67 44.0903" stroke="#263238" stroke-linecap="round" stroke-linejoin="round"/>
<path d="M215.886 25.434C221.144 29.8375 226.891 33.6229 233.012 36.7159C242.984 41.7018 250.636 32.078 245.964 27.3472C241.291 22.6165 252.051 32.5418 253.744 26.6051C255.437 20.6685 239.946 0.296211 224.385 0.00633696C208.825 -0.283537 205.057 9.46782 205.057 9.46782C205.057 9.46782 203.225 4.4472 201.845 7.21839C201.042 8.72659 200.583 10.3935 200.5 12.0999C200.5 12.0999 197.346 14.4189 195.955 15.7987C194.563 17.1785 196.349 18.6394 196.349 18.6394C196.349 18.6394 193.566 25.5964 195.05 30.9648L203.039 42.5598C204.003 42.5285 204.946 42.276 205.797 41.8216C206.647 41.3671 207.382 40.7231 207.944 39.9393C210.031 37.2029 208.5 28.669 208.5 28.669C208.5 28.669 208.628 37.8522 211.074 35.8347C213.521 33.8172 209.915 24.8427 209.915 24.8427L215.886 25.434Z" fill="#263238"/>
<path d="M208.941 15.9493C208.941 15.9493 216.06 21.3062 221.208 26.1993C226.356 31.0923 234.206 32.9707 236.537 31.8924" stroke="white" stroke-width="0.5" stroke-miterlimit="10" stroke-linecap="round"/>
<path d="M230.937 22.6861C230.937 22.6861 220.733 20.3671 218.333 15.9378C215.933 11.5086 208.5 12.0303 208.5 12.0303C210.357 10.3183 212.622 9.11197 215.079 8.52721C217.536 7.94246 220.101 7.99885 222.53 8.69098" stroke="white" stroke-width="0.5" stroke-miterlimit="10" stroke-linecap="round"/>
<path d="M205.068 18.1408C205.068 18.1408 213.046 30.1648 208.013 33.8636" stroke="white" stroke-width="0.5" stroke-miterlimit="10" stroke-linecap="round"/>
<path d="M177.808 85.1016C177.808 85.1016 156.161 144.12 157.158 150.706C158.155 157.292 169.518 154.671 173.101 153.778C176.684 152.886 190.493 130.971 190.586 126.252C191.478 125.694 192.242 124.953 192.825 124.077C193.409 123.201 193.8 122.212 193.972 121.174C194.818 117.37 195.398 103.781 189.902 93.5891" fill="white"/>
<g style="mix-blend-mode:multiply" opacity="0.5">
<path d="M177.808 85.1016C177.808 85.1016 156.161 144.12 157.158 150.706C157.714 154.312 161.378 155.147 165.158 155.031C167.802 147.575 168.834 133.951 170.817 127.203C173.008 119.655 180.151 100.117 184.499 89.844L177.808 85.1016Z" fill="#263238"/>
</g>
<path d="M177.808 85.1016C177.808 85.1016 156.161 144.12 157.158 150.706C158.155 157.292 169.518 154.671 173.101 153.778C176.684 152.886 190.493 130.971 190.586 126.252C191.478 125.694 192.242 124.953 192.825 124.077C193.409 123.201 193.8 122.212 193.972 121.173C194.818 117.37 195.398 103.781 189.902 93.5891" stroke="#263238" stroke-linecap="round" stroke-linejoin="round"/>
<path d="M194.169 145.314C194.169 145.314 166.341 143.621 162.77 143.331C159.199 143.042 154.92 147.969 158.283 154.787C161.645 161.605 166.99 161.999 173.553 160.759C180.116 159.518 194.61 150.671 194.61 150.671L194.169 145.314Z" fill="white"/>
<path opacity="0.5" d="M194.169 145.314C194.169 145.314 166.341 143.621 162.77 143.331C159.199 143.042 154.92 147.969 158.283 154.787C161.645 161.605 166.99 161.999 173.553 160.759C180.116 159.518 194.61 150.671 194.61 150.671L194.169 145.314Z" fill="#263238" stroke="#263238" stroke-linecap="round" stroke-linejoin="round"/>
<path d="M194.169 145.314C194.169 145.314 166.341 143.621 162.77 143.331C159.199 143.042 154.92 147.969 158.283 154.787C161.645 161.605 166.99 161.999 173.553 160.759C180.116 159.518 194.61 150.671 194.61 150.671L194.169 145.314Z" stroke="#263238" stroke-linecap="round" stroke-linejoin="round"/>
<path d="M198.61 138.531C198.61 138.531 202.204 134.716 203.155 134.798C204.106 134.879 211.086 134.496 211.677 136.131C212.269 137.766 211.329 137.047 210.367 137.592C209.405 138.137 204.628 138.751 204.628 138.751C204.628 138.751 208.744 139.088 209.984 139.818C211.225 140.549 216.478 145.395 216.454 146.346C216.431 147.297 215.794 147.506 214.518 147.506C213.243 147.506 214.182 148.422 213.834 149.338C213.486 150.254 210.97 150.056 210.97 150.056C210.97 150.056 211.19 153.233 209.289 153.071C207.387 152.909 203.978 150.428 203.978 150.428C203.978 150.428 196.94 153.002 194.412 152.804C192.752 152.729 191.102 153.102 189.635 153.883C191.761 148.306 194.793 143.119 198.61 138.531Z" fill="white"/>
<g style="mix-blend-mode:multiply" opacity="0.5">
<path d="M198.61 138.531C194.803 143.088 191.771 148.239 189.635 153.778C191.102 152.998 192.752 152.625 194.412 152.7C195.244 152.714 196.073 152.625 196.882 152.433C197.386 150.216 197.685 147.957 197.775 145.685C197.775 142.311 203.155 134.798 203.155 134.798C202.193 134.716 198.61 138.531 198.61 138.531Z" fill="#263238"/>
</g>
<path d="M198.61 138.531C198.61 138.531 202.204 134.716 203.155 134.798C204.106 134.879 211.086 134.496 211.677 136.131C212.269 137.766 211.329 137.047 210.367 137.592C209.405 138.137 204.628 138.751 204.628 138.751C204.628 138.751 208.744 139.088 209.984 139.818C211.225 140.549 216.478 145.395 216.454 146.346C216.431 147.297 215.794 147.506 214.518 147.506C213.243 147.506 214.182 148.422 213.834 149.338C213.486 150.254 210.97 150.056 210.97 150.056C210.97 150.056 211.19 153.233 209.289 153.071C207.387 152.909 203.978 150.428 203.978 150.428C203.978 150.428 196.94 153.002 194.412 152.804C192.752 152.729 191.102 153.102 189.635 153.883C191.761 148.306 194.793 143.119 198.61 138.531Z" stroke="#263238" stroke-linecap="round" stroke-linejoin="round"/>
<path d="M214.518 147.401L208.315 142.473L203.259 141.743" stroke="#263238" stroke-linecap="round" stroke-linejoin="round"/>
<path d="M210.958 149.952L204.083 146.23L200.929 145.662" stroke="#263238" stroke-linecap="round" stroke-linejoin="round"/>
<path d="M274.812 133.835C274.812 133.835 271.217 130.032 270.267 130.102C269.316 130.171 262.336 129.812 261.744 131.435C261.153 133.058 262.092 132.351 263.054 132.908C264.93 133.45 266.851 133.819 268.794 134.009C268.794 134.009 264.678 134.345 263.437 135.087C262.196 135.829 256.944 140.665 256.967 141.604C256.99 142.543 257.628 142.763 258.903 142.763C260.179 142.763 259.24 143.679 259.588 144.595C259.935 145.511 262.452 145.303 262.452 145.303C262.452 145.303 262.231 148.48 264.133 148.329C266.034 148.178 269.443 145.685 269.443 145.685C269.443 145.685 276.481 148.259 279.009 148.004C280.671 147.927 282.322 148.304 283.786 149.094C281.652 143.55 278.62 138.395 274.812 133.835Z" fill="white" stroke="#263238" stroke-linecap="round" stroke-linejoin="round"/>
<path d="M258.904 142.705L265.095 137.789L270.151 137.059" stroke="#263238" stroke-linecap="round" stroke-linejoin="round"/>
<path d="M262.452 145.256L269.327 141.546L272.481 140.966" stroke="#263238" stroke-linecap="round" stroke-linejoin="round"/>
<path d="M278.951 139.61C278.951 139.61 290.882 138.241 294.975 141.314C299.068 144.387 298.384 152.213 298.384 152.213" stroke="#263238" stroke-linecap="round" stroke-linejoin="round"/>
<path d="M184.696 391.915C184.696 391.915 185.971 389.376 190.041 389.886C194.111 390.397 196.662 395.232 193.856 396.751C191.05 398.269 184.696 391.915 184.696 391.915Z" fill="#263238" stroke="#263238" stroke-linecap="round" stroke-linejoin="round"/>
<path d="M190.714 273.833C190.714 273.833 200.291 275.757 204.894 278.818C209.497 281.879 210.251 282.645 211.399 288.778C212.547 294.912 208.338 311.377 208.338 319.807C208.338 328.236 202.204 379.567 202.204 383.799C202.204 388.031 206.425 396.82 206.042 399.881C205.88 402.082 206.139 404.294 206.807 406.398C206.807 406.398 209.486 408.311 206.042 408.717C202.598 409.122 202.204 409.482 199.143 407.951C196.082 406.421 194.505 398.757 191.862 396.461C189.218 394.165 187.653 391.486 187.653 389.562C187.653 387.637 193.775 380.378 193.775 380.378C193.775 380.378 193.009 369.653 192.615 360.458C192.221 351.264 187.977 330.961 187.977 322.195C187.977 313.429 193.775 292.698 193.775 292.698C193.775 292.698 178.898 294.518 173.101 290.692C167.303 286.865 173.866 270.006 190.714 273.833Z" fill="white" stroke="#263238" stroke-linecap="round" stroke-linejoin="round"/>
<path d="M191.862 396.414C191.862 396.414 184.905 390.443 184.696 391.962C184.487 393.481 184.441 405.458 184.951 406.722C185.461 407.986 199.201 409.273 206.332 410.549C213.463 411.824 210.657 407.232 209.126 406.212C207.596 405.192 191.862 396.414 191.862 396.414Z" fill="#263238" stroke="#263238" stroke-linecap="round" stroke-linejoin="round"/>
<path opacity="0.2" d="M191.862 396.414C191.862 396.414 184.905 390.443 184.696 391.962C184.487 393.481 184.441 405.458 184.951 406.722C185.461 407.986 199.201 409.273 206.332 410.549C213.463 411.824 210.657 407.232 209.126 406.212C207.596 405.192 191.862 396.414 191.862 396.414Z" fill="black"/>
<path d="M193.856 403.163C195.249 401.493 196.877 400.036 198.691 398.838C200.845 397.308 203.262 396.188 205.822 395.533L209.126 401.887C206.848 402.425 204.632 403.202 202.517 404.206C200.912 405.179 199.455 406.378 198.192 407.766C198.192 407.766 194.366 405.203 193.856 403.163Z" fill="#263238" stroke="#263238" stroke-linecap="round" stroke-linejoin="round"/>
<path d="M200.732 396.043C200.41 396.084 200.1 396.189 199.821 396.354C199.542 396.518 199.299 396.738 199.108 397C198.917 397.262 198.781 397.56 198.71 397.876C198.638 398.192 198.632 398.519 198.691 398.838C198.946 401.389 199.201 409.528 200.222 409.783C201.242 410.038 213.962 412.102 218.542 412.323C223.122 412.543 228.212 412.578 228.212 410.294C228.212 408.009 227.446 406.989 226.438 406.989C225.429 406.989 223.122 406.224 220.072 404.45C217.023 402.676 209.637 395.8 207.318 395.545C204.999 395.29 202.007 393.748 200.732 396.043Z" fill="#263238" stroke="#263238" stroke-linecap="round" stroke-linejoin="round"/>
<path opacity="0.2" d="M200.732 396.043C200.41 396.084 200.1 396.189 199.821 396.354C199.542 396.518 199.299 396.738 199.108 397C198.917 397.262 198.781 397.56 198.71 397.876C198.638 398.192 198.632 398.519 198.691 398.838C198.946 401.389 199.201 409.528 200.222 409.783C201.242 410.038 213.962 412.102 218.542 412.323C223.122 412.543 228.212 412.578 228.212 410.294C228.212 408.009 227.446 406.989 226.438 406.989C225.429 406.989 223.122 406.224 220.072 404.45C217.023 402.676 209.637 395.8 207.318 395.545C204.999 395.29 202.007 393.748 200.732 396.043Z" fill="black"/>
<path d="M94.035 406.989C94.035 405.842 93.695 404.721 93.058 403.768C92.4209 402.815 91.5155 402.072 90.4561 401.633C89.3968 401.194 88.2311 401.079 87.1065 401.303C85.9819 401.526 84.9489 402.079 84.1381 402.889C83.3273 403.7 82.7752 404.733 82.5515 405.858C82.3278 406.982 82.4426 408.148 82.8814 409.207C83.3202 410.267 84.0632 411.172 85.0166 411.809C85.97 412.446 87.0909 412.786 88.2375 412.786C89.7751 412.786 91.2497 412.176 92.337 411.088C93.4242 410.001 94.035 408.526 94.035 406.989Z" fill="#263238" stroke="#263238" stroke-linecap="round" stroke-linejoin="round"/>
<path d="M88.2375 409.876C89.8385 409.876 91.1363 408.578 91.1363 406.977C91.1363 405.376 89.8385 404.079 88.2375 404.079C86.6366 404.079 85.3388 405.376 85.3388 406.977C85.3388 408.578 86.6366 409.876 88.2375 409.876Z" fill="white" stroke="#263238" stroke-linecap="round" stroke-linejoin="round"/>
<path d="M156.161 406.989C156.161 405.842 155.821 404.721 155.184 403.768C154.547 402.815 153.641 402.072 152.582 401.633C151.523 401.194 150.357 401.079 149.232 401.303C148.108 401.526 147.075 402.079 146.264 402.889C145.453 403.7 144.901 404.733 144.677 405.858C144.453 406.982 144.568 408.148 145.007 409.207C145.446 410.267 146.189 411.172 147.142 411.809C148.096 412.446 149.217 412.786 150.363 412.786C151.901 412.786 153.375 412.176 154.463 411.088C155.55 410.001 156.161 408.526 156.161 406.989Z" fill="#263238" stroke="#263238" stroke-linecap="round" stroke-linejoin="round"/>
<path d="M153.262 406.989C153.262 406.416 153.092 405.855 152.773 405.378C152.455 404.902 152.002 404.53 151.473 404.311C150.943 404.091 150.36 404.034 149.798 404.146C149.235 404.258 148.719 404.534 148.314 404.939C147.908 405.345 147.632 405.861 147.52 406.423C147.408 406.986 147.466 407.568 147.685 408.098C147.905 408.628 148.276 409.081 148.753 409.399C149.229 409.718 149.79 409.888 150.363 409.888C151.132 409.888 151.869 409.582 152.413 409.039C152.957 408.495 153.262 407.758 153.262 406.989Z" fill="white" stroke="#263238" stroke-linecap="round" stroke-linejoin="round"/>
<path d="M176.463 406.989C176.463 405.842 176.123 404.721 175.486 403.768C174.849 402.815 173.944 402.072 172.885 401.633C171.825 401.194 170.66 401.079 169.535 401.303C168.41 401.526 167.377 402.079 166.567 402.889C165.756 403.7 165.204 404.733 164.98 405.858C164.756 406.982 164.871 408.148 165.31 409.207C165.749 410.267 166.492 411.172 167.445 411.809C168.398 412.446 169.519 412.786 170.666 412.786C172.204 412.786 173.678 412.176 174.765 411.088C175.853 410.001 176.463 408.526 176.463 406.989Z" fill="#263238" stroke="#263238" stroke-linecap="round" stroke-linejoin="round"/>
<path d="M173.565 406.989C173.567 406.412 173.398 405.848 173.079 405.368C172.76 404.887 172.306 404.512 171.773 404.291C171.241 404.069 170.655 404.01 170.089 404.122C169.524 404.234 169.004 404.512 168.597 404.919C168.189 405.327 167.911 405.847 167.799 406.412C167.688 406.978 167.746 407.564 167.968 408.096C168.19 408.629 168.564 409.083 169.045 409.402C169.525 409.721 170.089 409.89 170.666 409.888C171.435 409.888 172.172 409.582 172.716 409.039C173.259 408.495 173.565 407.758 173.565 406.989Z" fill="white" stroke="#263238" stroke-linecap="round" stroke-linejoin="round"/>
<path d="M141.366 307.458H129.098V400.345H141.366V307.458Z" fill="#263238" stroke="#263238" stroke-linecap="round" stroke-linejoin="round"/>
<path d="M144.647 355.994H125.84V400.345H144.647V355.994Z" fill="#263238" stroke="#263238" stroke-linecap="round" stroke-linejoin="round"/>
<path d="M87.0433 398.594H173.692C174.922 398.594 176.102 399.083 176.972 399.953C177.842 400.822 178.33 402.002 178.33 403.232V403.847H82.4053V403.232C82.4053 402.002 82.8939 400.822 83.7637 399.953C84.6335 399.083 85.8132 398.594 87.0433 398.594Z" fill="#263238" stroke="#263238" stroke-linecap="round" stroke-linejoin="round"/>
<path d="M122.709 271.537H106.94V296.953H122.709V271.537Z" fill="#263238" stroke="#263238" stroke-linecap="round" stroke-linejoin="round"/>
<path d="M186.319 293.44H84.1445C79.4506 293.44 75.6454 297.245 75.6454 301.939V304.223C75.6454 308.917 79.4506 312.722 84.1445 312.722H186.319C191.013 312.722 194.818 308.917 194.818 304.223V301.939C194.818 297.245 191.013 293.44 186.319 293.44Z" fill="#263238" stroke="#263238" stroke-linecap="round" stroke-linejoin="round"/>
<path opacity="0.1" d="M186.319 293.44H84.1445C79.4506 293.44 75.6454 297.245 75.6454 301.939V304.223C75.6454 308.917 79.4506 312.722 84.1445 312.722H186.319C191.013 312.722 194.818 308.917 194.818 304.223V301.939C194.818 297.245 191.013 293.44 186.319 293.44Z" fill="black"/>
<path d="M194.818 303.075C194.818 300.519 193.803 298.069 191.996 296.262C190.189 294.455 187.738 293.44 185.183 293.44H132.611C131.317 293.395 130.027 293.611 128.818 294.075C127.609 294.539 126.506 295.242 125.575 296.142C124.643 297.042 123.903 298.12 123.397 299.312C122.891 300.504 122.63 301.786 122.63 303.081C122.63 304.376 122.891 305.657 123.397 306.85C123.903 308.042 124.643 309.12 125.575 310.019C126.506 310.919 127.609 311.622 128.818 312.086C130.027 312.551 131.317 312.767 132.611 312.722H185.183C187.739 312.719 190.19 311.701 191.997 309.892C193.803 308.083 194.818 305.631 194.818 303.075Z" fill="#263238" stroke="#263238" stroke-miterlimit="10"/>
<path opacity="0.1" d="M194.818 303.376C194.818 302.111 194.569 300.858 194.085 299.689C193.601 298.52 192.891 297.458 191.996 296.563C191.101 295.668 190.039 294.959 188.87 294.474C187.701 293.99 186.448 293.741 185.183 293.741H132.611C131.317 293.696 130.027 293.912 128.818 294.377C127.609 294.841 126.506 295.544 125.575 296.444C124.643 297.343 123.903 298.421 123.397 299.613C122.891 300.805 122.63 302.087 122.63 303.382C122.63 304.677 122.891 305.959 123.397 307.151C123.903 308.343 124.643 309.421 125.575 310.321C126.506 311.221 127.609 311.924 128.818 312.388C130.027 312.852 131.317 313.068 132.611 313.023H185.183C186.449 313.023 187.703 312.774 188.873 312.289C190.043 311.804 191.105 311.093 192 310.197C192.895 309.301 193.605 308.238 194.088 307.067C194.572 305.897 194.82 304.643 194.818 303.376Z" fill="black"/>
<path d="M145.888 271.548H84.4344C82.9976 271.549 81.5753 271.262 80.2514 270.703C78.9274 270.145 77.7286 269.328 76.7257 268.299C75.7228 267.27 74.9362 266.051 74.4121 264.713C73.888 263.375 73.6371 261.946 73.6743 260.51L75.1932 200.599C75.2599 197.791 76.4233 195.12 78.4343 193.159C80.4454 191.198 83.1443 190.102 85.9533 190.105H136.658C139.231 190.101 141.72 191.019 143.673 192.694C145.626 194.368 146.914 196.688 147.302 199.231L156.52 259.188C156.75 260.719 156.648 262.281 156.219 263.768C155.791 265.255 155.046 266.632 154.037 267.805C153.028 268.979 151.777 269.92 150.371 270.566C148.964 271.212 147.435 271.547 145.888 271.548Z" fill="#263238" stroke="#263238" stroke-linecap="round" stroke-linejoin="round"/>
<path opacity="0.1" d="M145.888 271.548H84.4344C82.9976 271.549 81.5753 271.262 80.2514 270.703C78.9274 270.145 77.7286 269.328 76.7257 268.299C75.7228 267.27 74.9362 266.051 74.4121 264.713C73.888 263.375 73.6371 261.946 73.6743 260.51L75.1932 200.599C75.2599 197.791 76.4233 195.12 78.4343 193.159C80.4454 191.198 83.1443 190.102 85.9533 190.105H136.658C139.231 190.101 141.72 191.019 143.673 192.694C145.626 194.368 146.914 196.688 147.302 199.231L156.52 259.188C156.75 260.719 156.648 262.281 156.219 263.768C155.791 265.255 155.046 266.632 154.037 267.805C153.028 268.979 151.777 269.92 150.371 270.566C148.964 271.212 147.435 271.547 145.888 271.548Z" fill="black"/>
<path d="M125.817 309.649L98.8701 327.39" stroke="#263238" stroke-linecap="round" stroke-linejoin="round"/>
<path d="M97.8498 324.665L93.2118 327.784C92.8486 328.032 92.5447 328.356 92.3219 328.735C92.0991 329.114 91.9628 329.538 91.9229 329.975C91.883 330.413 91.9405 330.854 92.0911 331.267C92.2418 331.68 92.4819 332.055 92.7944 332.364L93.1886 332.735C93.7096 333.247 94.402 333.549 95.1321 333.581C95.8623 333.613 96.5785 333.374 97.1425 332.909L101.386 329.43C101.701 329.17 101.959 328.847 102.143 328.482C102.328 328.117 102.435 327.718 102.457 327.309C102.48 326.901 102.419 326.493 102.276 326.109C102.134 325.726 101.914 325.376 101.63 325.082C101.149 324.579 100.507 324.262 99.8157 324.185C99.1244 324.109 98.4283 324.279 97.8498 324.665Z" fill="#263238" stroke="#263238" stroke-linecap="round" stroke-linejoin="round"/>
<path d="M130.026 398.594H156.613C157.843 398.594 159.023 399.083 159.892 399.953C160.762 400.822 161.251 402.002 161.251 403.232V403.847H130.026V398.594Z" fill="#263238" stroke="#263238" stroke-linecap="round" stroke-linejoin="round"/>
<path d="M151.314 240.671C156.559 240.671 160.81 238.252 160.81 235.268C160.81 232.284 156.559 229.865 151.314 229.865C146.069 229.865 141.818 232.284 141.818 235.268C141.818 238.252 146.069 240.671 151.314 240.671Z" fill="white" stroke="#263238" stroke-linecap="round" stroke-linejoin="round"/>
<path d="M177.739 279.584C177.739 279.584 193.056 280.349 196.511 288.396C197.223 291.151 197.612 293.98 197.671 296.825C197.671 301.034 211.84 382.245 212.222 383.787C212.605 385.329 221.034 397.191 222.182 399.87C223.33 402.548 224.501 404.855 224.501 404.855C224.501 404.855 227.98 406.386 227.574 407.534C227.168 408.682 219.144 409.064 215.701 409.064C212.257 409.064 208.419 400.646 206.123 399.87C203.828 399.093 201.137 396.391 201.137 394.895C201.137 393.4 202.297 382.257 202.297 382.257C200.828 373.167 198.258 364.29 194.644 355.82C189.519 344.144 183.142 327.088 182.377 319.053C181.612 311.018 181.612 303.342 181.612 303.342L171.941 301.8C171.941 301.8 170.782 281.879 177.739 279.584Z" fill="white" stroke="#263238" stroke-linecap="round" stroke-linejoin="round"/>
<path d="M208.871 403.673C208.871 403.673 211.932 391.208 219.817 396.043L223.122 401.632C223.122 401.632 215.747 401.632 213.451 408.763C212.33 408.353 211.326 407.675 210.528 406.788C209.73 405.9 209.161 404.831 208.871 403.673Z" fill="#263238" stroke="#263238" stroke-linecap="round" stroke-linejoin="round"/>
<path d="M146.038 256.324L145.667 256.382C142.189 242.213 137.493 227.731 137.493 227.731C137.493 227.731 114.454 233.818 101.166 229.691C101.166 229.691 94.4061 262.98 94.4061 271.676C94.4061 278.633 92.9683 285.706 98.2324 289.787C98.7415 290.537 99.3959 291.176 100.157 291.668C100.918 292.16 101.769 292.494 102.662 292.651C117.028 295.353 141.783 294.414 145.911 295.237C150.039 296.06 171.941 301.8 171.941 301.8C171.941 301.8 173.252 289.718 176.962 281.879C180.672 274.041 197.613 275.375 197.613 275.375L146.038 256.324Z" fill="#263238" stroke="#263238" stroke-linecap="round" stroke-linejoin="round"/>
<path d="M140.716 163.495C140.716 163.495 137.539 159.506 134.107 163.901C130.675 168.295 133.4 183.554 135.093 189.653C136.786 195.752 165.379 221.052 168.069 222.931C170.759 224.809 205.81 232.728 208.871 231.279C211.932 229.83 212.814 222.49 211.074 218.525C209.335 214.559 176.579 206.141 176.579 206.141L140.716 163.495Z" fill="white"/>
<g style="mix-blend-mode:multiply" opacity="0.5">
<path d="M168.069 222.954C170.759 224.821 205.81 232.752 208.871 231.302C210.634 230.467 211.666 227.661 211.898 224.682C206.483 222.502 200.059 221.029 197.079 221.203C192.754 221.447 195.653 225.482 188.719 224.345C181.786 223.209 173.878 219.707 166.689 215.603C159.5 211.498 146.595 199.37 146.595 199.37L156.717 200.529L145.18 196.97L155.21 193.201L146.595 192.691C147.147 191.326 147.404 189.86 147.349 188.389C147.349 185.409 141.667 174.348 141.667 174.348L135.638 190.917C139.847 198.477 165.529 221.18 168.069 222.954Z" fill="#263238"/>
</g>
<path d="M140.716 163.495C140.716 163.495 137.539 159.506 134.107 163.901C130.675 168.295 133.4 183.554 135.093 189.653C136.786 195.752 165.379 221.052 168.069 222.931C170.759 224.809 205.81 232.728 208.871 231.279C211.932 229.83 212.814 222.49 211.074 218.525C209.335 214.559 176.579 206.141 176.579 206.141L140.716 163.495Z" stroke="#263238" stroke-linecap="round" stroke-linejoin="round"/>
<path d="M151.975 195.532L144.102 198.581L157.343 202.987" stroke="#263238" stroke-width="0.5" stroke-linecap="round" stroke-linejoin="round"/>
<path d="M208.953 218.49C207.94 218.697 207.015 219.206 206.297 219.949C205.579 220.691 205.102 221.634 204.929 222.652C204.245 226.282 207.816 229.378 207.816 229.378C207.816 229.378 215.341 231.963 217.591 225.899C219.84 219.835 212.593 218.258 208.953 218.49Z" fill="white"/>
<g style="mix-blend-mode:multiply" opacity="0.5">
<path d="M207.816 229.378C207.816 229.378 214.24 231.569 216.988 227.151C213.213 225.05 209.178 223.456 204.987 222.409C204.962 222.489 204.943 222.57 204.929 222.652C204.245 226.282 207.816 229.378 207.816 229.378Z" fill="#263238"/>
</g>
<path d="M208.953 218.49C207.94 218.697 207.015 219.206 206.297 219.949C205.579 220.691 205.102 221.634 204.929 222.652C204.245 226.282 207.816 229.378 207.816 229.378C207.816 229.378 215.341 231.963 217.591 225.899C219.84 219.835 212.593 218.258 208.953 218.49Z" stroke="#263238" stroke-linecap="round" stroke-linejoin="round"/>
<path d="M231.18 226.873C233.282 227.21 235.218 228.219 236.699 229.749C238.891 232.218 237.105 233.227 235.702 232.868C234.299 232.508 229.684 225.69 231.18 226.873Z" fill="white" stroke="#263238" stroke-linecap="round" stroke-linejoin="round"/>
<path d="M229.719 226.421C231.755 227.046 233.533 228.315 234.786 230.038C236.618 232.775 234.705 233.517 233.371 232.983C232.038 232.45 228.397 225.041 229.719 226.421Z" fill="white" stroke="#263238" stroke-linecap="round" stroke-linejoin="round"/>
<path d="M216.594 221.018C216.594 221.018 213.115 222.293 212.732 224.496C212.669 225.184 212.75 225.877 212.97 226.532C213.189 227.187 213.543 227.789 214.008 228.299C214.008 228.299 217.486 231.082 218.808 231.372C220.13 231.662 223.098 233.355 223.446 231.743C223.794 230.131 220.269 228.705 220.269 228.705C220.269 228.705 227.006 229.111 227.226 230.467C227.446 231.824 229.881 233.227 232.038 233.262C234.195 233.297 231.586 228.937 231.064 227.847C230.542 226.757 220.907 221.099 216.594 221.018Z" fill="white" stroke="#263238" stroke-linecap="round" stroke-linejoin="round"/>
<path d="M106.175 152.677C106.175 152.677 84.9794 165.002 83.3213 165.814C81.6632 166.626 80.0167 179.38 80.0167 180.586C80.0167 181.792 101.212 229.691 101.212 229.691C101.212 229.691 106.43 234.108 121.701 234.108C136.971 234.108 138.154 231.789 138.154 231.789L139.371 211.579C139.371 211.579 144.589 197.92 144.995 195.509C145.401 193.097 140.716 163.495 140.716 163.495L119.034 149.036C119.034 149.036 110.198 143.842 106.175 152.677Z" fill="white"/>
<g style="mix-blend-mode:multiply" opacity="0.5">
<path d="M85.4779 174.58C87.136 171.925 102.395 161.976 102.395 161.976L108.03 158.66L115.254 147.703C112.355 147.169 108.482 147.61 106.175 152.677C106.175 152.677 84.933 165.002 83.3213 165.802C81.7096 166.602 80.0167 179.369 80.0167 180.574C80.0167 180.841 81.0139 183.299 82.5676 186.998C83.1705 181.514 84.3184 176.435 85.4779 174.58Z" fill="#263238"/>
</g>
<path d="M106.175 152.677C106.175 152.677 84.9794 165.002 83.3213 165.814C81.6632 166.626 80.0167 179.38 80.0167 180.586C80.0167 181.792 101.212 229.691 101.212 229.691C101.212 229.691 106.43 234.108 121.701 234.108C136.971 234.108 138.154 231.789 138.154 231.789L139.371 211.579C139.371 211.579 144.589 197.92 144.995 195.509C145.401 193.097 140.716 163.495 140.716 163.495L119.034 149.036C119.034 149.036 110.198 143.842 106.175 152.677Z" stroke="#263238" stroke-linecap="round" stroke-linejoin="round"/>
<path d="M113.283 171.797L119.463 178.464L118.176 206.814L127.22 209.202L128.171 196.819L131.498 209.678L138.165 203.011L123.753 177.989L125.654 170.371L117.561 161.327L112.332 173.71" fill="#263238"/>
<path d="M113.283 171.797L119.463 178.464L118.176 206.814L127.22 209.202L128.171 196.819L131.498 209.678L138.165 203.011L123.753 177.989L125.654 170.371L117.561 161.327L112.332 173.71" stroke="#263238" stroke-linecap="round" stroke-linejoin="round"/>
<path d="M102.036 152.747C102.036 152.747 103.357 161.57 105.12 165.501C106.882 169.432 110.859 176.099 110.859 176.099L119.242 167.704L127.637 173.501C127.637 173.501 126.756 158.938 123.66 152.318C120.564 145.697 105.56 139.064 102.036 152.747Z" fill="white" stroke="#263238" stroke-linecap="round" stroke-linejoin="round"/>
<g style="mix-blend-mode:multiply" opacity="0.5">
<path d="M108.03 158.66L116.413 145.906C114.883 145.235 113.246 144.843 111.578 144.746C110.14 145.036 108.517 145.395 106.801 145.778C104.702 146.937 102.963 149.117 102.036 152.735C102.036 152.735 102.696 157.187 103.717 161.188L108.03 158.66Z" fill="#263238"/>
</g>
<path d="M122.779 150.091C121.644 152.591 121.044 155.3 121.016 158.045C121.016 162.451 121.898 167.321 121.898 169.524V176.145C121.898 176.145 116.599 169.524 112.622 164.666C108.645 159.808 105.56 155.39 106.001 151.425C106.442 147.459 110.419 131.992 110.419 131.992C112.519 131.973 114.584 132.541 116.378 133.633C118.173 134.725 119.627 136.297 120.576 138.172C124.101 144.792 122.779 150.091 122.779 150.091Z" fill="white" stroke="#263238" stroke-linecap="round" stroke-linejoin="round"/>
<g style="mix-blend-mode:multiply" opacity="0.5">
<path d="M109.027 142.415L107.705 143.053C106.894 146.532 106.175 149.859 106.001 151.425C105.572 155.251 108.436 159.541 112.204 164.179L112.68 155.054L122.779 150.126L114.662 142.114L109.027 142.415Z" fill="#263238"/>
</g>
<path d="M131.359 145.349C131.359 145.349 128.437 150.764 131.591 150.984C134.745 151.204 134.061 148.503 134.513 147.61C134.965 146.717 136.994 148.769 135.87 153.013C134.745 157.257 129.11 160.225 125.724 156.84C122.338 153.454 123.254 149.883 124.379 147.158C125.504 144.433 130.037 143.1 131.359 145.349Z" fill="#263238" stroke="#263238" stroke-linecap="round" stroke-linejoin="round"/>
<path d="M125.028 97.485C124.043 97.3459 123.011 97.2415 121.944 97.1835C118.06 96.9864 113.828 97.2415 110.801 99.6649C104.517 104.697 105.572 114.808 106.024 121.846C106.534 129.835 106.43 141.488 112.425 147.274C122.547 157.037 138.374 146.59 138.374 135.018C138.374 130.125 138.56 122.669 138.884 121C139.307 118.937 139.598 116.85 139.754 114.75C140.45 104.094 134.409 98.8184 125.028 97.485Z" fill="white" stroke="#263238" stroke-linecap="round" stroke-linejoin="round"/>
<g style="mix-blend-mode:multiply" opacity="0.5">
<path d="M128.762 149.361C125.93 149.321 123.103 149.104 120.298 148.712C115.996 148.051 110.024 141.082 113.004 131.47C115.984 121.858 115.996 116.872 115.996 116.872L105.85 110.529C105.618 114.301 105.68 118.084 106.036 121.846C106.546 129.835 106.442 141.488 112.436 147.274C117.352 152.028 123.614 151.981 128.762 149.361Z" fill="#263238"/>
</g>
<path d="M123.011 128.328C123.645 128.328 124.159 127.445 124.159 126.356C124.159 125.268 123.645 124.385 123.011 124.385C122.377 124.385 121.863 125.268 121.863 126.356C121.863 127.445 122.377 128.328 123.011 128.328Z" fill="#263238"/>
<path d="M134.339 126.843C134.269 127.933 133.69 128.78 133.064 128.733C132.437 128.687 131.974 127.783 132.043 126.693C132.113 125.603 132.681 124.756 133.319 124.803C133.956 124.849 134.409 125.754 134.339 126.843Z" fill="#263238"/>
<path d="M119.451 121.637C119.451 121.637 121.77 116.744 125.492 119.052L119.451 121.637Z" fill="white"/>
<path d="M119.451 121.637C119.451 121.637 121.77 116.744 125.492 119.052" stroke="#263238" stroke-linecap="round" stroke-linejoin="round"/>
<path d="M131.533 119.91C131.533 119.91 134.281 116.756 135.846 121.927L131.533 119.91Z" fill="white"/>
<path d="M131.533 119.91C131.533 119.91 134.281 116.756 135.846 121.927" stroke="#263238" stroke-linecap="round" stroke-linejoin="round"/>
<path d="M129.747 130.276C129.747 130.473 129.747 130.67 129.747 130.844C130.037 132.861 131.475 134.322 130.907 135.157C130.339 135.992 127.428 136.316 127.428 136.316" fill="white"/>
<path d="M129.747 130.276C129.747 130.473 129.747 130.67 129.747 130.844C130.037 132.861 131.475 134.322 130.907 135.157C130.339 135.992 127.428 136.316 127.428 136.316" stroke="#263238" stroke-linecap="round" stroke-linejoin="round"/>
<path d="M126.35 140.92C126.35 140.92 121.283 142.485 119.393 138.392L126.35 140.92Z" fill="white"/>
<path d="M126.35 140.92C126.35 140.92 121.283 142.485 119.393 138.392" stroke="#263238" stroke-linecap="round" stroke-linejoin="round"/>
<path d="M122.025 131.18C125.317 131.18 127.985 128.512 127.985 125.22C127.985 121.929 125.317 119.26 122.025 119.26C118.734 119.26 116.065 121.929 116.065 125.22C116.065 128.512 118.734 131.18 122.025 131.18Z" stroke="#263238" stroke-width="0.5" stroke-linecap="round" stroke-linejoin="round"/>
<path d="M135.51 131.18C138.462 131.18 140.855 128.512 140.855 125.22C140.855 121.929 138.462 119.26 135.51 119.26C132.558 119.26 130.165 121.929 130.165 125.22C130.165 128.512 132.558 131.18 135.51 131.18Z" stroke="#263238" stroke-width="0.5" stroke-linecap="round" stroke-linejoin="round"/>
<path d="M116.065 125.22L107.555 125.58" stroke="#263238" stroke-width="0.5" stroke-linecap="round" stroke-linejoin="round"/>
<path d="M140.855 125.22H138.676" stroke="#263238" stroke-width="0.5" stroke-linecap="round" stroke-linejoin="round"/>
<path d="M127.973 123.4H130.443" stroke="#263238" stroke-width="0.5" stroke-linecap="round" stroke-linejoin="round"/>
<path d="M135.545 90.4469C131.096 89.6699 126.597 89.205 122.083 89.0555C122.083 89.0555 114.187 85.3335 103.531 89.5193C88.2839 95.4791 88.6202 115.84 92.4001 128.815C93.5596 132.734 96.2844 138.682 93.7799 142.613C92.203 145.094 87.6926 143.772 88.3767 140.363C89.0608 136.954 90.1739 138.114 91.0783 137.661C91.9827 137.209 90.6261 136.757 88.597 136.085C86.5679 135.412 84.7938 137.244 84.5388 141.708C83.8663 153.883 101.804 161.941 108.645 151.297C111.427 146.659 108.958 138.601 107.752 132.745C107.369 130.718 107.11 128.67 106.975 126.612C109.14 126.404 111.147 125.39 112.599 123.771C113.673 122.298 114.59 120.716 115.335 119.052C116.147 119.052 116.993 119.11 117.921 119.202C127.197 120.13 130.003 104.338 130.003 104.338C130.003 104.338 134.641 113.161 136.032 116.42L137.423 119.666C137.423 119.666 141.145 120.13 144.856 112.234C148.566 104.338 144.369 91.8731 135.545 90.4469Z" fill="#263238" stroke="#263238" stroke-linecap="round" stroke-linejoin="round"/>
<path d="M129.469 100.627C129.469 100.627 140.879 104.546 141.226 111.318C141.574 118.089 139.8 118.437 139.8 118.437" stroke="white" stroke-width="0.5" stroke-miterlimit="10" stroke-linecap="round"/>
<path d="M128.055 98.1344C128.055 98.1344 138.734 95.6415 142.305 102.772" stroke="white" stroke-width="0.5" stroke-miterlimit="10" stroke-linecap="round"/>
<path d="M114.871 91.0034C114.871 91.0034 125.55 96.3487 127.336 101.346C129.121 106.344 119.857 115.944 113.793 117.73C107.729 119.515 103.114 117.37 98.8353 120.582C94.5568 123.794 96.3424 132.687 96.3424 132.687" stroke="white" stroke-width="0.5" stroke-miterlimit="10" stroke-linecap="round"/>
<path d="M93.0958 122.716C93.0958 122.716 90.2435 115.944 96.3076 112.385C102.372 108.825 107.705 112.385 114.477 108.106C121.248 103.828 122.315 98.4938 122.315 98.4938" stroke="white" stroke-width="0.5" stroke-miterlimit="10" stroke-linecap="round"/>
<path d="M108.784 128.861C108.784 128.861 105.039 119.759 101.282 122.971C97.5251 126.183 103.96 134.751 108.239 133.684" fill="white"/>
<path d="M108.784 128.861C108.784 128.861 105.039 119.759 101.282 122.971C97.5251 126.183 103.96 134.751 108.239 133.684" stroke="#263238" stroke-linecap="round" stroke-linejoin="round"/>
<g opacity="0.37">
<path d="M108.784 128.861C108.784 128.861 105.039 119.759 101.282 122.971C97.5251 126.183 103.96 134.751 108.239 133.684" fill="#263238"/>
<path d="M108.784 128.861C108.784 128.861 105.039 119.759 101.282 122.971C97.5251 126.183 103.96 134.751 108.239 133.684" stroke="#263238" stroke-linecap="round" stroke-linejoin="round"/>
</g>
<path d="M85.907 166.73C85.907 166.73 84.0865 165.362 80.0399 168.411C75.9933 171.461 72.2249 185.328 74.7526 191.207C77.2803 197.086 84.0286 227.65 87.1708 229.32C90.313 230.989 124.101 230.85 128.089 229.911C132.078 228.972 134.861 223.754 134.188 219.244C133.516 214.733 129.063 213.562 127.753 213.527C126.443 213.492 99.531 211.962 99.531 211.962L91.171 176.644" fill="white"/>
<g style="mix-blend-mode:multiply" opacity="0.5">
<path d="M129.156 222.339C127.231 219.962 96.5975 224.102 93.3277 222.339C90.0579 220.577 88.481 217.226 90.8696 214.965C93.2581 212.704 86.3012 212.194 86.3592 210.2C86.4171 208.205 90.4058 207.66 90.1507 204.993C89.8956 202.327 81.2806 201.77 81.4893 194.14C81.698 186.511 83.6111 177.281 85.3388 174.673C86.2955 173.572 87.3952 172.605 88.6086 171.797L85.907 166.718C85.907 166.718 84.0865 165.35 80.0399 168.4C75.9933 171.449 72.2249 185.328 74.7526 191.207C77.2803 197.086 84.0286 227.65 87.1708 229.32C90.313 230.989 124.101 230.85 128.089 229.911C129.379 229.498 130.55 228.783 131.507 227.825C132.463 226.867 133.176 225.694 133.585 224.403C131.44 223.789 129.724 223.035 129.156 222.339Z" fill="#263238"/>
</g>
<path d="M85.907 166.73C85.907 166.73 84.0865 165.362 80.0399 168.411C75.9933 171.461 72.2249 185.328 74.7526 191.207C77.2803 197.086 84.0286 227.65 87.1708 229.32C90.313 230.989 124.101 230.85 128.089 229.911C132.078 228.972 134.861 223.754 134.188 219.244C133.516 214.733 129.063 213.562 127.753 213.527C126.443 213.492 99.531 211.962 99.531 211.962L91.171 176.644" stroke="#263238" stroke-linecap="round" stroke-linejoin="round"/>
<path d="M89.2927 218.478C91.287 212.611 99.5194 212.495 99.5194 212.495C96.236 211.635 92.803 211.513 89.4666 212.136" stroke="#263238" stroke-width="0.5" stroke-linecap="round" stroke-linejoin="round"/>
<path d="M132.727 214.988C131.509 215.51 130.469 216.376 129.736 217.48C129.003 218.584 128.608 219.878 128.6 221.203C128.46 225.957 131.614 226.838 132.391 227.383C133.168 227.928 137.852 230.444 139.742 228.902C141.632 227.36 143.858 223.209 142.061 219.73C140.264 216.252 134.571 215.035 132.727 214.988Z" fill="white"/>
<g style="mix-blend-mode:multiply" opacity="0.5">
<path d="M139.742 228.902C140.224 228.493 140.652 228.026 141.018 227.511L137.075 225.412C133.458 224.415 130.014 223.395 129.156 222.339C129.007 222.182 128.819 222.066 128.611 222.003C128.831 226.061 131.649 226.873 132.391 227.383C133.133 227.893 137.852 230.444 139.742 228.902Z" fill="#263238"/>
</g>
<path d="M132.727 214.988C131.509 215.51 130.469 216.376 129.736 217.48C129.003 218.584 128.608 219.878 128.6 221.203C128.46 225.957 131.614 226.838 132.391 227.383C133.168 227.928 137.852 230.444 139.742 228.902C141.632 227.36 143.858 223.209 142.061 219.73C140.264 216.252 134.571 215.035 132.727 214.988Z" stroke="#263238" stroke-linecap="round" stroke-linejoin="round"/>
<path d="M139.255 219.244C139.255 219.244 136.38 220.345 135.986 222.513C135.591 224.682 135.73 225.853 136.229 225.992C136.728 226.131 138.386 226.885 138.386 226.885L143.499 229.54C143.499 229.54 147.557 234.178 148.891 234.549C150.224 234.92 149.076 234.05 148.891 233.042C148.31 231.597 147.559 230.226 146.653 228.96L152.705 234.317C152.705 234.317 154.7 235.036 154.236 233.517C153.772 231.998 150.676 228.879 150.676 228.879L156.393 234.062C156.393 234.062 157.552 234.595 157.552 233.923C157.617 233.586 157.594 233.238 157.484 232.912C157.374 232.587 157.182 232.296 156.926 232.068C156.277 231.546 152.381 227.082 152.381 227.082L157.807 230.409C157.807 230.409 158.967 231.952 159.778 231.975C160.59 231.998 160.126 231.476 159.512 229.656C158.897 227.835 154.769 225.169 153.297 224.125C151.824 223.081 143.777 219.371 139.255 219.244Z" fill="white" stroke="#263238" stroke-linecap="round" stroke-linejoin="round"/>
<path d="M398.681 217.852H353.391L361.542 191.416H406.832L398.681 217.852Z" fill="#162228" stroke="#162228" stroke-linecap="round" stroke-linejoin="round"/>
<path d="M395.121 220.345H349.843L357.994 193.897H403.272L395.121 220.345Z" fill="white" stroke="#162228" stroke-linecap="round" stroke-linejoin="round"/>
<path d="M330.05 209.875H404.675C406.52 209.875 408.29 210.608 409.595 211.912C410.899 213.217 411.632 214.987 411.632 216.832V236.288H330.05V209.875Z" fill="#162228" stroke="#162228" stroke-linecap="round" stroke-linejoin="round"/>
<path d="M398.275 209.875H316.658V236.323H398.275V209.875Z" fill="white" stroke="#162228" stroke-linecap="round" stroke-linejoin="round"/>
<path d="M379.908 229.227H314.71V232.717H379.908V229.227Z" fill="white" stroke="#162228" stroke-linecap="round" stroke-linejoin="round"/>
<path d="M379.908 225.737H328.624V229.227H379.908V225.737Z" fill="#162228" stroke="#162228" stroke-linecap="round" stroke-linejoin="round"/>
<path d="M314.977 233.749H263.53V236.149H314.977V233.749Z" fill="white" stroke="#162228" stroke-linecap="round" stroke-linejoin="round"/>
<path d="M354.539 148.793H243.645V220.31H354.539V148.793Z" fill="white" stroke="#162228" stroke-linecap="round" stroke-linejoin="round"/>
<path d="M354.539 148.793H249.697V220.31H354.539V148.793Z" fill="#162228" stroke="#162228" stroke-linecap="round" stroke-linejoin="round"/>
<path d="M316.171 182.024H291.903V237.239H316.171V182.024Z" fill="white" stroke="#162228" stroke-linecap="round" stroke-linejoin="round"/>
<path d="M318.409 182.024H294.141V237.239H318.409V182.024Z" fill="#162228" stroke="#162228" stroke-linecap="round" stroke-linejoin="round"/>
<path d="M292.529 182.673H318.977V220.484" stroke="white" stroke-linejoin="round"/>
<path d="M242.879 232.462H168.591V236.346H242.879V232.462Z" fill="white" stroke="#162228" stroke-linecap="round" stroke-linejoin="round"/>
<path d="M262.081 232.462H187.792V236.346H262.081V232.462Z" fill="white" stroke="#162228" stroke-linecap="round" stroke-linejoin="round"/>
<path d="M165.727 242.747H51.899L46.4957 409.088C46.466 409.548 46.5282 410.01 46.6788 410.447C46.8294 410.883 47.0654 411.285 47.373 411.629C47.6805 411.974 48.0536 412.253 48.4703 412.452C48.8871 412.651 49.3392 412.764 49.8003 412.786C50.6531 412.762 51.4657 412.418 52.0775 411.823C52.6893 411.229 53.0559 410.426 53.1049 409.575L63.9693 273.647C64.1072 271.223 65.1477 268.938 66.886 267.243C68.6243 265.547 70.9343 264.564 73.3612 264.487H144.264C146.69 264.564 148.999 265.548 150.735 267.244C152.472 268.939 153.51 271.224 153.645 273.647L164.521 409.551C164.569 410.401 164.934 411.202 165.544 411.796C166.153 412.391 166.963 412.736 167.814 412.763C168.275 412.743 168.727 412.63 169.144 412.433C169.562 412.236 169.935 411.957 170.244 411.614C170.553 411.271 170.79 410.87 170.942 410.434C171.094 409.998 171.158 409.537 171.13 409.076L165.727 242.747Z" fill="#162228" stroke="#162228" stroke-linecap="round" stroke-linejoin="round"/>
<path d="M165.982 250.399L165.727 242.747H128.495H89.1304H51.899L51.6439 250.399H165.982Z" fill="#162228" stroke="#162228" stroke-linecap="round" stroke-linejoin="round"/>
<path d="M424.943 242.747H311.081L305.689 409.088C305.661 409.547 305.724 410.008 305.876 410.443C306.027 410.878 306.263 411.279 306.571 411.622C306.878 411.965 307.251 412.243 307.667 412.441C308.082 412.639 308.534 412.753 308.994 412.775C309.844 412.747 310.654 412.402 311.264 411.808C311.873 411.214 312.238 410.413 312.287 409.563L323.186 273.647C323.324 271.223 324.364 268.938 326.103 267.243C327.841 265.547 330.151 264.564 332.578 264.487H403.481C405.907 264.564 408.215 265.548 409.952 267.244C411.688 268.939 412.726 271.224 412.861 273.647L423.737 409.551C423.78 410.405 424.143 411.212 424.753 411.811C425.363 412.41 426.176 412.758 427.03 412.786C427.49 412.764 427.941 412.651 428.357 412.453C428.773 412.255 429.146 411.977 429.453 411.634C429.761 411.29 429.997 410.89 430.148 410.455C430.3 410.02 430.363 409.559 430.335 409.099L424.943 242.747Z" fill="#162228" stroke="#162228" stroke-linecap="round" stroke-linejoin="round"/>
<path d="M425.697 250.399L425.453 242.747H388.222H348.846H311.614L311.371 250.399H425.697Z" fill="#162228" stroke="#162228" stroke-linecap="round" stroke-linejoin="round"/>
<path d="M432.445 236.323H42.6694V245.089H432.445V236.323Z" fill="white" stroke="#162228" stroke-linecap="round" stroke-linejoin="round"/>
<path d="M432.457 236.323H153.088V245.089H432.457V236.323Z" fill="white" stroke="#162228" stroke-linecap="round" stroke-linejoin="round"/>
</svg>
